# xmcd
#
# Track frame offsets: 
#        150
#        15487
#        27064
#        41581
#        58816
#        70480
#        89890
#        112472
#        127601
#        152197
#        165112
#        178684
#        195584
#        211079
#
# Disc length: 3027 seconds
#
# Revision: 0
# Processed by: cddbd v1.5.2PL0 Copyright (c) Steve Scherf et al.
# Submitted via: ExactAudioCopy v1.3
#
DISCID=bb0bd10e
DTITLE=Chris 'Bad News' Barnes - Hokum Blues
DYEAR=2017
DGENRE=Blues
TTITLE0=It Hurts Me Too
TTITLE1=Let Me Play with Your Poodle
TTITLE2=I'm Gonna Get High
TTITLE3=It's Tight Like That
TTITLE4=I Had to Give Up Gym
TTITLE5=Things About Coming My Way
TTITLE6=You Can't Get Enough of That Stuff
TTITLE7=Hokum Blues
TTITLE8=Somebody Been Using That Thing
TTITLE9=Keep Your Mind on It
TTITLE10=Let Me Pat That Thing
TTITLE11=Caught Him Doing It
TTITLE12=Gin Mill Blues
TTITLE13=Christmas and New Year's Blues
EXTD=
EXTT0=
EXTT1=
EXTT2=
EXTT3=
EXTT4=
EXTT5=
EXTT6=
EXTT7=
EXTT8=
EXTT9=
EXTT10=
EXTT11=
EXTT12=
EXTT13=
PLAYORDER=
